<svg
      width="240"
      height="40"
      viewBox="0 0 240 40"
      fill="none"
      xmlns="http://www.w3.org/2000/svg"
    >
      <rect x="0.5" y="0.5" width="239" height="39" rx="5.5" fill="#F3F3F4" />
      <rect x="0.5" y="0.5" width="239" height="39" rx="5.5" stroke="#F0F0F0" />
      <path
        d="M17.2705 23.0381C17.2705 22.8558 17.2295 22.6872 17.1475 22.5322C17.07 22.3727 16.9082 22.2292 16.6621 22.1016C16.4206 21.9694 16.056 21.8555 15.5684 21.7598C15.1582 21.6732 14.7868 21.5706 14.4541 21.4521C14.126 21.3337 13.8457 21.1901 13.6133 21.0215C13.3854 20.8529 13.21 20.6546 13.0869 20.4268C12.9639 20.1989 12.9023 19.9323 12.9023 19.627C12.9023 19.3353 12.9661 19.0596 13.0938 18.7998C13.2259 18.54 13.4105 18.3099 13.6475 18.1094C13.889 17.9089 14.1784 17.7516 14.5156 17.6377C14.8529 17.5238 15.2288 17.4668 15.6436 17.4668C16.236 17.4668 16.7419 17.5716 17.1611 17.7812C17.5804 17.9909 17.9017 18.2712 18.125 18.6221C18.3483 18.9684 18.46 19.3535 18.46 19.7773H17.1953C17.1953 19.5723 17.1338 19.374 17.0107 19.1826C16.8923 18.9867 16.7168 18.8249 16.4844 18.6973C16.2565 18.5697 15.9762 18.5059 15.6436 18.5059C15.2926 18.5059 15.0078 18.5605 14.7891 18.6699C14.5749 18.7747 14.4176 18.9092 14.3174 19.0732C14.2217 19.2373 14.1738 19.4105 14.1738 19.5928C14.1738 19.7295 14.1966 19.8525 14.2422 19.9619C14.2923 20.0667 14.3789 20.1647 14.502 20.2559C14.625 20.3424 14.7982 20.4245 15.0215 20.502C15.2448 20.5794 15.5296 20.6569 15.876 20.7344C16.4821 20.8711 16.9811 21.0352 17.373 21.2266C17.765 21.418 18.0566 21.6527 18.248 21.9307C18.4395 22.2087 18.5352 22.5459 18.5352 22.9424C18.5352 23.266 18.4668 23.5622 18.3301 23.8311C18.1979 24.0999 18.0042 24.3324 17.749 24.5283C17.4984 24.7197 17.1976 24.8701 16.8467 24.9795C16.5003 25.0843 16.1107 25.1367 15.6777 25.1367C15.026 25.1367 14.4746 25.0205 14.0234 24.7881C13.5723 24.5557 13.2305 24.2549 12.998 23.8857C12.7656 23.5166 12.6494 23.127 12.6494 22.7168H13.9209C13.9391 23.0632 14.0394 23.3389 14.2217 23.5439C14.404 23.7445 14.6273 23.888 14.8916 23.9746C15.1559 24.0566 15.418 24.0977 15.6777 24.0977C16.0241 24.0977 16.3135 24.0521 16.5459 23.9609C16.7829 23.8698 16.9629 23.7445 17.0859 23.585C17.209 23.4255 17.2705 23.2432 17.2705 23.0381ZM23.2656 25.1367C22.7507 25.1367 22.2835 25.0501 21.8643 24.877C21.4495 24.6992 21.0918 24.4508 20.791 24.1318C20.4948 23.8128 20.2669 23.4346 20.1074 22.9971C19.9479 22.5596 19.8682 22.0811 19.8682 21.5615V21.2744C19.8682 20.6729 19.957 20.1374 20.1348 19.668C20.3125 19.194 20.554 18.793 20.8594 18.4648C21.1647 18.1367 21.5111 17.8883 21.8984 17.7197C22.2858 17.5511 22.6868 17.4668 23.1016 17.4668C23.6302 17.4668 24.0859 17.5579 24.4688 17.7402C24.8561 17.9225 25.1729 18.1777 25.4189 18.5059C25.665 18.8294 25.8473 19.2122 25.9658 19.6543C26.0843 20.0918 26.1436 20.5703 26.1436 21.0898V21.6572H20.6201V20.625H24.8789V20.5293C24.8607 20.2012 24.7923 19.8822 24.6738 19.5723C24.5599 19.2624 24.3776 19.0072 24.127 18.8066C23.8763 18.6061 23.5345 18.5059 23.1016 18.5059C22.8145 18.5059 22.5501 18.5674 22.3086 18.6904C22.0671 18.8089 21.8597 18.9867 21.6865 19.2236C21.5133 19.4606 21.3789 19.75 21.2832 20.0918C21.1875 20.4336 21.1396 20.8278 21.1396 21.2744V21.5615C21.1396 21.9124 21.1875 22.2428 21.2832 22.5527C21.3835 22.8581 21.527 23.127 21.7139 23.3594C21.9053 23.5918 22.1354 23.7741 22.4043 23.9062C22.6777 24.0384 22.9876 24.1045 23.334 24.1045C23.7806 24.1045 24.1589 24.0133 24.4688 23.8311C24.7786 23.6488 25.0498 23.4049 25.2822 23.0996L26.0479 23.708C25.8883 23.9495 25.6855 24.1797 25.4395 24.3984C25.1934 24.6172 24.8903 24.7949 24.5303 24.9316C24.1748 25.0684 23.7533 25.1367 23.2656 25.1367ZM31.9814 23.7354V19.9277C31.9814 19.6361 31.9222 19.3831 31.8037 19.1689C31.6898 18.9502 31.5166 18.7816 31.2842 18.6631C31.0518 18.5446 30.7646 18.4854 30.4229 18.4854C30.1038 18.4854 29.8236 18.54 29.582 18.6494C29.3451 18.7588 29.1582 18.9023 29.0215 19.0801C28.8893 19.2578 28.8232 19.4492 28.8232 19.6543H27.5586C27.5586 19.39 27.627 19.1279 27.7637 18.8682C27.9004 18.6084 28.0964 18.3737 28.3516 18.1641C28.6113 17.9499 28.9212 17.7812 29.2812 17.6582C29.6458 17.5306 30.0514 17.4668 30.498 17.4668C31.0358 17.4668 31.5098 17.5579 31.9199 17.7402C32.3346 17.9225 32.6582 18.1982 32.8906 18.5674C33.1276 18.932 33.2461 19.39 33.2461 19.9414V23.3867C33.2461 23.6328 33.2666 23.8949 33.3076 24.1729C33.3532 24.4508 33.4193 24.6901 33.5059 24.8906V25H32.1865C32.1227 24.8542 32.0726 24.6605 32.0361 24.4189C31.9997 24.1729 31.9814 23.945 31.9814 23.7354ZM32.2002 20.5156L32.2139 21.4043H30.9355C30.5755 21.4043 30.2542 21.4339 29.9717 21.4932C29.6891 21.5479 29.4521 21.6322 29.2607 21.7461C29.0693 21.86 28.9235 22.0036 28.8232 22.1768C28.723 22.3454 28.6729 22.5436 28.6729 22.7715C28.6729 23.0039 28.7253 23.2158 28.8301 23.4072C28.9349 23.5986 29.0921 23.7513 29.3018 23.8652C29.516 23.9746 29.778 24.0293 30.0879 24.0293C30.4753 24.0293 30.8171 23.9473 31.1133 23.7832C31.4095 23.6191 31.6442 23.4186 31.8174 23.1816C31.9951 22.9447 32.0908 22.7145 32.1045 22.4912L32.6445 23.0996C32.6126 23.291 32.526 23.5029 32.3848 23.7354C32.2435 23.9678 32.0544 24.1911 31.8174 24.4053C31.585 24.6149 31.307 24.7904 30.9834 24.9316C30.6644 25.0684 30.3044 25.1367 29.9033 25.1367C29.402 25.1367 28.9622 25.0387 28.584 24.8428C28.2103 24.6468 27.9186 24.3848 27.709 24.0566C27.5039 23.724 27.4014 23.3525 27.4014 22.9424C27.4014 22.5459 27.4788 22.1973 27.6338 21.8965C27.7887 21.5911 28.012 21.3382 28.3037 21.1377C28.5954 20.9326 28.9463 20.7777 29.3564 20.6729C29.7666 20.568 30.2246 20.5156 30.7305 20.5156H32.2002ZM36.5 18.7656V25H35.2354V17.6035H36.4658L36.5 18.7656ZM38.8105 17.5625L38.8037 18.7383C38.6989 18.7155 38.5986 18.7018 38.5029 18.6973C38.4118 18.6882 38.307 18.6836 38.1885 18.6836C37.8968 18.6836 37.6393 18.7292 37.416 18.8203C37.1927 18.9115 37.0036 19.0391 36.8486 19.2031C36.6937 19.3672 36.5706 19.5632 36.4795 19.791C36.3929 20.0143 36.3359 20.2604 36.3086 20.5293L35.9531 20.7344C35.9531 20.2878 35.9964 19.8685 36.083 19.4766C36.1742 19.0846 36.3132 18.7383 36.5 18.4375C36.6868 18.1322 36.9238 17.8952 37.2109 17.7266C37.5026 17.5534 37.849 17.4668 38.25 17.4668C38.3411 17.4668 38.446 17.4782 38.5645 17.501C38.6829 17.5192 38.765 17.5397 38.8105 17.5625ZM42.8027 24.0977C43.1035 24.0977 43.3815 24.0361 43.6367 23.9131C43.8919 23.79 44.1016 23.6214 44.2656 23.4072C44.4297 23.1885 44.5231 22.9401 44.5459 22.6621H45.749C45.7262 23.0996 45.5781 23.5075 45.3047 23.8857C45.0358 24.2594 44.6826 24.5625 44.2451 24.7949C43.8076 25.0228 43.3268 25.1367 42.8027 25.1367C42.2467 25.1367 41.7614 25.0387 41.3467 24.8428C40.9365 24.6468 40.5947 24.3779 40.3213 24.0361C40.0524 23.6943 39.8496 23.3024 39.7129 22.8604C39.5807 22.4137 39.5146 21.9421 39.5146 21.4453V21.1582C39.5146 20.6615 39.5807 20.1921 39.7129 19.75C39.8496 19.3034 40.0524 18.9092 40.3213 18.5674C40.5947 18.2256 40.9365 17.9567 41.3467 17.7607C41.7614 17.5648 42.2467 17.4668 42.8027 17.4668C43.3815 17.4668 43.8874 17.5853 44.3203 17.8223C44.7533 18.0547 45.0928 18.3737 45.3389 18.7793C45.5895 19.1803 45.7262 19.6361 45.749 20.1465H44.5459C44.5231 19.8411 44.4365 19.5654 44.2861 19.3193C44.1403 19.0732 43.9398 18.8773 43.6846 18.7314C43.4339 18.5811 43.14 18.5059 42.8027 18.5059C42.4154 18.5059 42.0895 18.5833 41.8252 18.7383C41.5654 18.8887 41.3581 19.0938 41.2031 19.3535C41.0527 19.6087 40.9434 19.8936 40.875 20.208C40.8112 20.5179 40.7793 20.8346 40.7793 21.1582V21.4453C40.7793 21.7689 40.8112 22.0879 40.875 22.4023C40.9388 22.7168 41.0459 23.0016 41.1963 23.2568C41.3512 23.512 41.5586 23.7171 41.8184 23.8721C42.0827 24.0225 42.4108 24.0977 42.8027 24.0977ZM48.4355 14.5V25H47.1709V14.5H48.4355ZM48.1348 21.0215L47.6084 21.001C47.613 20.4951 47.6882 20.028 47.834 19.5996C47.9798 19.1667 48.1849 18.7907 48.4492 18.4717C48.7135 18.1527 49.028 17.9066 49.3926 17.7334C49.7617 17.5557 50.1696 17.4668 50.6162 17.4668C50.9808 17.4668 51.3089 17.5169 51.6006 17.6172C51.8923 17.7129 52.1406 17.8678 52.3457 18.082C52.5553 18.2962 52.7148 18.5742 52.8242 18.916C52.9336 19.2533 52.9883 19.6657 52.9883 20.1533V25H51.7168V20.1396C51.7168 19.7523 51.6598 19.4424 51.5459 19.21C51.432 18.973 51.2656 18.8021 51.0469 18.6973C50.8281 18.5879 50.5592 18.5332 50.2402 18.5332C49.9258 18.5332 49.6387 18.5993 49.3789 18.7314C49.1237 18.8636 48.9027 19.0459 48.7158 19.2783C48.5335 19.5107 48.39 19.7773 48.2852 20.0781C48.1849 20.3743 48.1348 20.6888 48.1348 21.0215Z"
        fill="#A0A0A0"
      />
      <path
        fill-rule="evenodd"
        clip-rule="evenodd"
        d="M218.083 24.4054C214.954 24.4054 212.417 21.9369 212.417 18.8919C212.417 15.8468 214.954 13.3784 218.083 13.3784C221.213 13.3784 223.75 15.8468 223.75 18.8919C223.75 20.166 223.306 21.3392 222.56 22.2728L226.376 25.9857L225.374 26.9603L221.558 23.2475C220.599 23.9732 219.393 24.4054 218.083 24.4054ZM222.333 18.8919C222.333 21.1757 220.431 23.0271 218.083 23.0271C215.736 23.0271 213.833 21.1757 213.833 18.8919C213.833 16.6081 215.736 14.7568 218.083 14.7568C220.431 14.7568 222.333 16.6081 222.333 18.8919Z"
        fill="#545454"
      />
    </svg>